<?xml version="1.0" encoding="UTF-8"?>
<svg xmlns="http://www.w3.org/2000/svg" width="512" height="512" viewBox="0 0 512 512">
  <title>TableFlow Favicon</title>
  <desc>Minimal circular poker-chip icon with pause symbol for TableFlow (blue/dark blue + grey).</desc>
  <!-- Palette: navy dark #0F2744, navy mid #1B3D66, blue #2A6FB4, grey #E6EAEE -->
  <defs>
    <mask id="ringMask">
      <rect width="100%" height="100%" fill="black"/>
      <circle cx="256" cy="256" r="240" fill="white"/>
      <circle cx="256" cy="256" r="180" fill="black"/>
    </mask>
  </defs>
  <!-- Outer base -->
  <circle cx="256" cy="256" r="240" fill="#0F2744"/>
  <!-- Chip segments -->
  <g mask="url(#ringMask)">
    <rect x="16" y="236" width="480" height="40" fill="#2A6FB4" transform="rotate(0 256 256)"/>
    <rect x="16" y="236" width="480" height="40" fill="#2A6FB4" transform="rotate(45 256 256)"/>
    <rect x="16" y="236" width="480" height="40" fill="#2A6FB4" transform="rotate(90 256 256)"/>
    <rect x="16" y="236" width="480" height="40" fill="#2A6FB4" transform="rotate(135 256 256)"/>
    <rect x="16" y="236" width="480" height="40" fill="#2A6FB4" transform="rotate(180 256 256)"/>
    <rect x="16" y="236" width="480" height="40" fill="#2A6FB4" transform="rotate(225 256 256)"/>
    <rect x="16" y="236" width="480" height="40" fill="#2A6FB4" transform="rotate(270 256 256)"/>
    <rect x="16" y="236" width="480" height="40" fill="#2A6FB4" transform="rotate(315 256 256)"/>
  </g>
  <!-- Inner disc -->
  <circle cx="256" cy="256" r="178" fill="#E6EAEE" stroke="#1B3D66" stroke-width="12"/>
  <!-- Pause bars -->
  <rect x="200" y="176" width="52" height="172" rx="14" ry="14" fill="#0F2744"/>
  <rect x="260" y="176" width="52" height="172" rx="14" ry="14" fill="#0F2744"/>
  <!-- Subtle outlines for crisp edges -->
  <circle cx="256" cy="256" r="240" fill="none" stroke="#0B1E33" stroke-width="4" opacity="0.65"/>
  <circle cx="256" cy="256" r="180" fill="none" stroke="#0B1E33" stroke-width="3" opacity="0.50"/>
</svg>
